<?xml version="1.0" encoding="UTF-8"?>
<svg xmlns="http://www.w3.org/2000/svg" xmlns:xlink="http://www.w3.org/1999/xlink" width="512pt" height="512pt" viewBox="0 0 512 512" version="1.1">
<g id="surface1">
<path style=" stroke:none;fill-rule:nonzero;fill:#111010;fill-opacity:1;" d="M 256 80 C 194.3125 80 144 130.3125 144 192 C 144 230.5625 163.6875 264.8125 193.5 285 C 136.4375 309.5 96 366.125 96 432 L 128 432 C 128 385.75 152.4375 345.5 189 323 C 199.75 349.375 225.9375 368 256 368 C 286.0625 368 312.25 349.375 323 323 C 359.5625 345.5 384 385.75 384 432 L 416 432 C 416 366.125 375.5625 309.5 318.5 285 C 348.3125 264.8125 368 230.5625 368 192 C 368 130.3125 317.6875 80 256 80 Z M 256 112 C 300.375 112 336 147.625 336 192 C 336 236.375 300.375 272 256 272 C 211.625 272 176 236.375 176 192 C 176 147.625 211.625 112 256 112 Z M 256 304 C 269.125 304 281.625 305.875 293.5 309.5 C 287.9375 324.9375 273.4375 336 256 336 C 238.5625 336 224.0625 324.9375 218.5 309.5 C 230.375 305.875 242.875 304 256 304 Z "/>
</g>
</svg>
